<?xml version="1.0" encoding="utf-8"?>
<!-- Generator: Adobe Illustrator 21.1.0, SVG Export Plug-In . SVG Version: 6.00 Build 0)  -->
<svg version="1.1" id="Layer_1" xmlns="http://www.w3.org/2000/svg" xmlns:xlink="http://www.w3.org/1999/xlink" x="0px" y="0px"
	 viewBox="0 0 492 492" style="enable-background:new 0 0 492 492;" xml:space="preserve">
<style type="text/css">
	.st0{fill:#B2B2B2;}
</style>
<g>
	<g>
		<path class="st0" d="M226.8,109.2L7.9,328.2C2.8,333.3,0,340,0,347.2c0,7.2,2.8,14,7.9,19L24,382.4c10.5,10.5,27.6,10.5,38.1,0
			L246,198.5l184,184.1c5.1,5.1,11.8,7.9,19,7.9s14-2.8,19-7.9l16.1-16.1c5.1-5.1,7.9-11.8,7.9-19c0-7.2-2.8-14-7.9-19L265,109.2
			c-5.1-5.1-11.9-7.9-19.1-7.8C238.7,101.4,231.9,104.1,226.8,109.2z"/>
	</g>
</g>
</svg>
