<?xml version="1.0" encoding="utf-8"?>
<!-- Generator: Adobe Illustrator 21.1.0, SVG Export Plug-In . SVG Version: 6.00 Build 0)  -->
<svg version="1.1" id="Capa_1" xmlns="http://www.w3.org/2000/svg" xmlns:xlink="http://www.w3.org/1999/xlink" x="0px" y="0px"
	 viewBox="0 0 381.4 381.4" style="enable-background:new 0 0 381.4 381.4;" xml:space="preserve">
<style type="text/css">
	.st0{fill:#FFFFFF;}
</style>
<g>
	<g>
		<g>
			<g>
				<path class="st0" d="M15.9,79.5h206.6c0,17.5,14.2,31.8,31.8,31.8H286c17.5,0,31.8-14.2,31.8-31.8h47.7
					c8.7,0,15.9-7.1,15.9-15.9s-7.2-15.9-15.9-15.9h-47.7c0-17.5-14.2-31.8-31.8-31.8h-31.8c-17.5,0-31.8,14.2-31.8,31.8H15.9
					C7.1,47.7,0,54.8,0,63.6S7.1,79.5,15.9,79.5z M254.3,47.7H286v31.8h-31.8V47.7z"/>
				<path class="st0" d="M365.5,174.8H158.9c0-17.5-14.2-31.8-31.8-31.8H95.3c-17.5,0-31.8,14.2-31.8,31.8H15.9
					c-8.8,0-15.9,7.1-15.9,15.9s7.1,15.9,15.9,15.9h47.7c0,17.5,14.2,31.8,31.8,31.8h31.8c17.5,0,31.8-14.2,31.8-31.8h206.6
					c8.7,0,15.9-7.1,15.9-15.9C381.4,181.9,374.2,174.8,365.5,174.8z M127.1,206.6H95.3v-31.8h31.8L127.1,206.6L127.1,206.6z"/>
				<path class="st0" d="M365.5,301.9H254.3c0-17.5-14.2-31.8-31.8-31.8h-31.8c-17.5,0-31.8,14.2-31.8,31.8h-143
					c-8.8,0-15.9,7.2-15.9,15.9s7.1,15.9,15.9,15.9h143c0,17.5,14.2,31.8,31.8,31.8h31.8c17.5,0,31.8-14.2,31.8-31.8h111.2
					c8.7,0,15.9-7.2,15.9-15.9S374.2,301.9,365.5,301.9z M222.5,333.7h-31.8v-31.8h31.8V333.7z"/>
			</g>
		</g>
	</g>
</g>
</svg>
